<?xml version="1.0" encoding="UTF-8"?>
<svg xmlns="http://www.w3.org/2000/svg" width="1200" height="640" viewBox="0 0 1200 640" role="img" aria-labelledby="title description">
  <title id="title">RF-DETR weekly project metrics</title>
  <desc id="description">For week ending 2026-09-27, RF-DETR had +84 new GitHub stars and 47,796 PyPI downloads.</desc>
  <metadata id="weekly-metrics-state">{"history":[{"downloads":100370,"new_stars":null,"stars_total":9026,"week_end":"2026-08-23","week_start":"2026-08-17"},{"downloads":52689,"new_stars":70,"stars_total":9096,"week_end":"2026-08-30","week_start":"2026-08-24"},{"downloads":44203,"new_stars":201,"stars_total":9297,"week_end":"2026-09-06","week_start":"2026-08-31"},{"downloads":51877,"new_stars":170,"stars_total":9467,"week_end":"2026-09-13","week_start":"2026-09-07"},{"downloads":50614,"new_stars":74,"stars_total":9541,"week_end":"2026-09-20","week_start":"2026-09-14"},{"downloads":47796,"new_stars":84,"stars_total":9625,"week_end":"2026-09-27","week_start":"2026-09-21"}],"package":"rfdetr","repository":"roboflow/rf-detr","schema_version":1}</metadata>
  <rect width="1200" height="640" rx="18" fill="#ffffff"/>
  <text x="56" y="58" fill="#0b0b0b" font-family="DejaVu Sans, Arial, sans-serif" font-size="30" font-weight="700">RF-DETR weekly growth</text>
  <text x="56" y="86" fill="#6b6a66" font-family="DejaVu Sans, Arial, sans-serif" font-size="15">Latest completed week · Sep 21–Sep 27, 2026</text>
  <g font-family="DejaVu Sans, Arial, sans-serif">
    <rect x="56" y="112" width="336" height="82" rx="10" fill="#f5f1fa"/>
    <text x="76" y="141" fill="#6b6a66" font-size="14">GITHUB STARS</text>
    <text x="76" y="176" fill="#0b0b0b" font-size="28" font-weight="700">9,625</text>
    <rect x="410" y="112" width="336" height="82" rx="10" fill="#f5f1fa"/>
    <text x="430" y="141" fill="#6b6a66" font-size="14">WEEKLY STAR CHANGE</text>
    <text x="430" y="176" fill="#8315f9" font-size="28" font-weight="700">+84 new stars</text>
    <rect x="764" y="112" width="380" height="82" rx="10" fill="#f5f1fa"/>
    <text x="784" y="141" fill="#6b6a66" font-size="14">PYPI · EXCLUDING MIRRORS</text>
    <text x="784" y="176" fill="#2a78d6" font-size="28" font-weight="700">47,796 weekly downloads</text>
  </g>
  <g aria-hidden="true" fill="none" stroke="#e1e0d9" stroke-width="1">
    <path d="M100 530.0H1100"/>
    <path d="M100 385.0H1100"/>
    <path d="M100 240.0H1100"/>
  </g>
  <path d="M100 240V530H1100" fill="none" stroke="#c3c2b7" stroke-width="1.5"/>
  <g fill="#6b6a66" font-family="DejaVu Sans, Arial, sans-serif" font-size="13">
    <text x="88" y="535.0" text-anchor="end">+0</text>
    <text x="1112" y="535.0" text-anchor="start">0</text>
    <text x="88" y="390.0" text-anchor="end">+100</text>
    <text x="1112" y="390.0" text-anchor="start">26,344</text>
    <text x="88" y="245.0" text-anchor="end">+201</text>
    <text x="1112" y="245.0" text-anchor="start">52,689</text>
    <text x="100" y="221" fill="#8315f9" font-size="14" font-weight="700">NEW STARS</text>
    <text x="1100" y="221" fill="#2a78d6" font-size="14" font-weight="700" text-anchor="end">WEEKLY DOWNLOADS</text>
  </g>
  <g id="weekly-stars-bars">
    <rect x="328.0" y="429.0" width="44.0" height="101.0" rx="4" fill="#8315f9"/>
    <rect x="494.7" y="240.0" width="44.0" height="290.0" rx="4" fill="#8315f9"/>
    <rect x="661.3" y="284.7" width="44.0" height="245.3" rx="4" fill="#8315f9"/>
    <rect x="828.0" y="423.2" width="44.0" height="106.8" rx="4" fill="#8315f9"/>
    <rect x="994.7" y="408.8" width="44.0" height="121.2" rx="4" fill="#8315f9"/>
  </g>
  <g id="weekly-downloads-line">
    <polyline points="350.0,240.0 516.7,286.7 683.3,244.5 850.0,251.4 1016.7,266.9" fill="none" stroke="#2a78d6" stroke-width="4" stroke-linecap="round" stroke-linejoin="round"/>
    <circle cx="350.0" cy="240.0" r="5" fill="#2a78d6" stroke="#ffffff" stroke-width="2"/>
    <circle cx="516.7" cy="286.7" r="5" fill="#2a78d6" stroke="#ffffff" stroke-width="2"/>
    <circle cx="683.3" cy="244.5" r="5" fill="#2a78d6" stroke="#ffffff" stroke-width="2"/>
    <circle cx="850.0" cy="251.4" r="5" fill="#2a78d6" stroke="#ffffff" stroke-width="2"/>
    <circle cx="1016.7" cy="266.9" r="5" fill="#2a78d6" stroke="#ffffff" stroke-width="2"/>
  </g>
  <g fill="#6b6a66" font-family="DejaVu Sans, Arial, sans-serif" font-size="12" text-anchor="middle">
    <text x="183.3" y="552">Aug 23</text>
    <text x="350.0" y="552">Aug 30</text>
    <text x="516.7" y="552">Sep 6</text>
    <text x="683.3" y="552">Sep 13</text>
    <text x="850.0" y="552">Sep 20</text>
    <text x="1016.7" y="552">Sep 27</text>
  </g>
  <g font-family="DejaVu Sans, Arial, sans-serif" font-size="13" fill="#52514e">
    <rect x="396" y="593" width="18" height="12" rx="2" fill="#8315f9"/>
    <text x="424" y="604">New GitHub stars</text>
    <path d="M582 599H610" fill="none" stroke="#2a78d6" stroke-width="4" stroke-linecap="round"/>
    <circle cx="596" cy="599" r="4" fill="#2a78d6"/>
    <text x="620" y="604">PyPI downloads</text>
  </g>
</svg>
